<svg width="431" height="113" viewBox="0 0 431 113" fill="none" xmlns="http://www.w3.org/2000/svg">
<path d="M14.6001 65.7445H14.1001V66.2445C14.1001 69.453 14.0741 71.9219 13.9637 73.8248C13.8528 75.7363 13.6584 77.032 13.3422 77.9159C13.035 78.7744 12.6276 79.207 12.0858 79.4543C11.5026 79.7204 10.7053 79.8012 9.5471 79.8012C8.38824 79.8012 7.59073 79.7219 7.00731 79.4573C6.46584 79.2117 6.05885 78.7816 5.75193 77.9251C5.43578 77.0429 5.24143 75.7482 5.13052 73.8355C5.02011 71.9313 4.99409 69.4593 4.99409 66.2445V65.7445H4.49409C3.20926 65.7445 2.40561 65.5692 1.87253 65.2006C1.36029 64.8464 1.01008 64.2502 0.793498 63.1753C0.575259 62.0922 0.508966 60.6066 0.50089 58.5695C0.496904 57.564 0.506761 56.4494 0.517822 55.1986C0.529277 53.9032 0.542024 52.4617 0.542024 50.8443C0.542024 49.6573 0.882506 48.84 1.40427 48.2582C1.93481 47.6667 2.69448 47.2724 3.60863 47.0172C5.20917 46.5703 7.13199 46.5843 8.78869 46.5963C9.04881 46.5982 9.30237 46.6 9.5471 46.6C9.79182 46.6 10.0454 46.5982 10.3055 46.5963C11.9622 46.5843 13.885 46.5703 15.4856 47.0172C16.3997 47.2724 17.1594 47.6667 17.6899 48.2582C18.2117 48.84 18.5522 49.6573 18.5522 50.8443C18.5522 52.475 18.5652 53.9257 18.577 55.2283C18.5882 56.4667 18.5981 57.5713 18.5945 58.5696C18.5871 60.6068 18.5216 62.0925 18.3038 63.1755C18.0877 64.2503 17.7378 64.8464 17.2253 65.2005C16.6919 65.5692 15.8872 65.7445 14.6001 65.7445Z" fill="#FAFAFA" stroke="#F1F1F1"/>
<path d="M12.6277 37.1402C13.8949 38.8256 13.5459 41.2128 11.8449 42.4716C10.1438 43.7304 7.7379 43.3819 6.47069 41.6965C5.20349 40.0111 5.55249 37.6239 7.25356 36.3651C8.95464 35.1062 11.3605 35.4548 12.6277 37.1402Z" fill="#FAFAFA" stroke="#F1F1F1"/>
<path d="M102.219 46.9174C106.857 46.9174 107.272 45.6914 107.272 32.8607C112.52 32.8607 111.724 30.0729 111.724 17.4605C111.724 12.2964 105.74 12.7162 102.219 12.7162C98.6979 12.7162 92.7139 12.2964 92.7139 17.4605C92.7139 30.0729 91.9267 32.8607 97.166 32.8607C97.166 45.7166 97.5807 46.9174 102.219 46.9174Z" stroke="#F1F1F1" stroke-miterlimit="10"/>
<path d="M104.817 9.4845C106.739 8.06204 107.135 5.363 105.702 3.45602C104.268 1.54904 101.547 1.15625 99.625 2.57871C97.7028 4.00117 97.3069 6.70021 98.7407 8.60719C100.174 10.5142 102.895 10.907 104.817 9.4845Z" stroke="#F1F1F1" stroke-miterlimit="10"/>
<path d="M131.176 46.9179C135.814 46.9179 136.229 45.6919 136.229 32.8612C141.477 32.8612 140.681 30.0734 140.681 17.461C140.681 12.2969 134.697 12.7167 131.176 12.7167C127.655 12.7167 121.671 12.2969 121.671 17.461C121.671 30.0734 120.884 32.8612 126.123 32.8612C126.123 45.7171 126.538 46.9179 131.176 46.9179Z" stroke="#F1F1F1" stroke-miterlimit="10"/>
<path d="M133.774 9.48133C135.696 8.05888 136.092 5.35983 134.659 3.45285C133.225 1.54587 130.504 1.15309 128.582 2.57554C126.66 3.998 126.264 6.69704 127.698 8.60402C129.131 10.511 131.852 10.9038 133.774 9.48133Z" stroke="#F1F1F1" stroke-miterlimit="10"/>
<path d="M220.653 9.49037C222.575 8.06791 222.971 5.36887 221.537 3.46189C220.104 1.5549 217.383 1.16212 215.461 2.58458C213.539 4.00703 213.143 6.70607 214.577 8.61305C216.01 10.52 218.731 10.9128 220.653 9.49037Z" stroke="#F1F1F1" stroke-miterlimit="10"/>
<path d="M249.606 9.49524C251.528 8.07279 251.924 5.37376 250.491 3.46678C249.057 1.55979 246.336 1.167 244.414 2.58945C242.492 4.01191 242.096 6.71095 243.53 8.61793C244.964 10.5249 247.684 10.9177 249.606 9.49524Z" stroke="#F1F1F1" stroke-miterlimit="10"/>
<path d="M131.176 46.9179C135.814 46.9179 136.229 45.6919 136.229 32.8612C141.477 32.8612 140.681 30.0734 140.681 17.461C140.681 12.2969 134.697 12.7167 131.176 12.7167C127.655 12.7167 121.671 12.2969 121.671 17.461C121.671 30.0734 120.884 32.8612 126.123 32.8612C126.123 45.7171 126.538 46.9179 131.176 46.9179Z" stroke="#F1F1F1" stroke-miterlimit="10"/>
<path d="M133.774 9.48133C135.696 8.05888 136.092 5.35983 134.659 3.45285C133.225 1.54587 130.504 1.15309 128.582 2.57554C126.66 3.998 126.264 6.69704 127.698 8.60402C129.131 10.511 131.852 10.9038 133.774 9.48133Z" stroke="#F1F1F1" stroke-miterlimit="10"/>
<path d="M247.002 46.9176C251.64 46.9176 252.055 45.6916 252.055 32.861C257.303 32.861 256.507 30.0731 256.507 17.4608C256.507 12.2966 250.523 12.7165 247.002 12.7165C243.481 12.7165 237.497 12.2966 237.497 17.4608C237.497 30.0731 236.71 32.861 241.949 32.861C241.949 45.7168 242.364 46.9176 247.002 46.9176Z" stroke="#F1F1F1" stroke-miterlimit="10"/>
<path d="M160.131 46.9176C164.769 46.9176 165.184 45.6916 165.184 32.861C170.432 32.861 169.636 30.0731 169.636 17.4608C169.636 12.2966 163.652 12.7165 160.131 12.7165C156.61 12.7165 150.626 12.2966 150.626 17.4608C150.626 30.0731 149.839 32.861 155.078 32.861C155.078 45.7168 155.493 46.9176 160.131 46.9176Z" stroke="#F1F1F1" stroke-miterlimit="10"/>
<path d="M162.731 9.48548C164.653 8.06302 165.049 5.36397 163.616 3.45699C162.182 1.55001 159.461 1.15723 157.539 2.57969C155.617 4.00214 155.221 6.70119 156.655 8.60817C158.089 10.5151 160.809 10.9079 162.731 9.48548Z" stroke="#F1F1F1" stroke-miterlimit="10"/>
<path d="M249.606 9.49524C251.528 8.07279 251.924 5.37376 250.491 3.46678C249.057 1.55979 246.336 1.167 244.414 2.58945C242.492 4.01191 242.096 6.71095 243.53 8.61793C244.964 10.5249 247.684 10.9177 249.606 9.49524Z" stroke="#F1F1F1" stroke-miterlimit="10"/>
<path d="M189.096 46.9176C193.734 46.9176 194.149 45.6916 194.149 32.861C199.397 32.861 198.601 30.0731 198.601 17.4608C198.601 12.2966 192.617 12.7165 189.096 12.7165C185.575 12.7165 179.591 12.2966 179.591 17.4608C179.591 30.0731 178.804 32.861 184.043 32.861C184.043 45.7168 184.458 46.9176 189.096 46.9176Z" stroke="#F1F1F1" stroke-miterlimit="10"/>
<path d="M191.696 9.48548C193.618 8.06302 194.014 5.36397 192.58 3.45699C191.147 1.55001 188.426 1.15723 186.504 2.57969C184.582 4.00214 184.186 6.70119 185.62 8.60817C187.053 10.5151 189.774 10.9079 191.696 9.48548Z" stroke="#F1F1F1" stroke-miterlimit="10"/>
<path d="M218.053 46.9174C222.691 46.9174 223.106 45.6914 223.106 32.8607C228.354 32.8607 227.558 30.0729 227.558 17.4605C227.558 12.2964 221.574 12.7162 218.053 12.7162C214.532 12.7162 208.548 12.2964 208.548 17.4605C208.548 30.0729 207.761 32.8607 213 32.8607C213 45.7166 213.415 46.9174 218.053 46.9174Z" stroke="#F1F1F1" stroke-miterlimit="10"/>
<path d="M333.881 46.9176C338.519 46.9176 338.934 45.6916 338.934 32.861C344.182 32.861 343.386 30.0731 343.386 17.4608C343.386 12.2966 337.402 12.7165 333.881 12.7165C330.36 12.7165 324.376 12.2966 324.376 17.4608C324.376 30.0731 323.589 32.861 328.828 32.861C328.828 45.7168 329.243 46.9176 333.881 46.9176Z" stroke="#F1F1F1" stroke-miterlimit="10"/>
<path d="M336.495 9.49573C338.417 8.07327 338.813 5.37423 337.379 3.46725C335.945 1.56027 333.225 1.16748 331.303 2.58994C329.381 4.0124 328.985 6.71144 330.418 8.61842C331.852 10.5254 334.573 10.9182 336.495 9.49573Z" stroke="#F1F1F1" stroke-miterlimit="10"/>
<path d="M365.458 9.49549C367.38 8.07303 367.776 5.37398 366.342 3.467C364.908 1.56002 362.188 1.16724 360.266 2.5897C358.343 4.01215 357.947 6.7112 359.381 8.61818C360.815 10.5252 363.536 10.9179 365.458 9.49549Z" stroke="#F1F1F1" stroke-miterlimit="10"/>
<path d="M247.002 46.9176C251.64 46.9176 252.055 45.6916 252.055 32.861C257.303 32.861 256.507 30.0731 256.507 17.4608C256.507 12.2966 250.523 12.7165 247.002 12.7165C243.481 12.7165 237.497 12.2966 237.497 17.4608C237.497 30.0731 236.71 32.861 241.949 32.861C241.949 45.7168 242.364 46.9176 247.002 46.9176Z" stroke="#F1F1F1" stroke-miterlimit="10"/>
<path d="M275.967 46.9179C280.605 46.9179 281.02 45.6919 281.02 32.8612C286.268 32.8612 285.472 30.0734 285.472 17.461C285.472 12.2969 279.488 12.7167 275.967 12.7167C272.446 12.7167 266.462 12.2969 266.462 17.461C266.462 30.0734 265.675 32.8612 270.914 32.8612C270.914 45.7171 271.329 46.9179 275.967 46.9179Z" stroke="#F1F1F1" stroke-miterlimit="10"/>
<path d="M278.571 9.49477C280.493 8.07231 280.889 5.37327 279.455 3.46629C278.022 1.55931 275.301 1.16652 273.379 2.58898C271.457 4.01144 271.061 6.71046 272.495 8.61745C273.928 10.5244 276.649 10.9172 278.571 9.49477Z" stroke="#F1F1F1" stroke-miterlimit="10"/>
<path d="M304.926 46.9176C309.564 46.9176 309.979 45.6916 309.979 32.861C315.227 32.861 314.431 30.0731 314.431 17.4608C314.431 12.2966 308.447 12.7165 304.926 12.7165C301.405 12.7165 295.421 12.2966 295.421 17.4608C295.421 30.0731 294.634 32.861 299.873 32.861C299.873 45.7168 300.288 46.9176 304.926 46.9176Z" stroke="#F1F1F1" stroke-miterlimit="10"/>
<path d="M307.53 9.49109C309.452 8.06863 309.848 5.36959 308.414 3.46261C306.981 1.55563 304.26 1.16285 302.338 2.5853C300.416 4.00776 300.02 6.7068 301.454 8.61378C302.887 10.5208 305.608 10.9135 307.53 9.49109Z" stroke="#F1F1F1" stroke-miterlimit="10"/>
<path d="M333.881 46.9174C338.519 46.9174 338.934 45.6914 338.934 32.8607C344.182 32.8607 343.386 30.0729 343.386 17.4605C343.386 12.2964 337.402 12.7162 333.881 12.7162C330.36 12.7162 324.376 12.2964 324.376 17.4605C324.376 30.0729 323.589 32.8607 328.828 32.8607C328.828 45.7166 329.243 46.9174 333.881 46.9174Z" stroke="#F1F1F1" stroke-miterlimit="10"/>
<path d="M362.846 46.9174C367.484 46.9174 367.899 45.6914 367.899 32.8607C373.147 32.8607 372.351 30.0729 372.351 17.4605C372.351 12.2964 366.367 12.7162 362.846 12.7162C359.325 12.7162 353.341 12.2964 353.341 17.4605C353.341 30.0729 352.554 32.8607 357.793 32.8607C357.793 45.7166 358.208 46.9174 362.846 46.9174Z" stroke="#F1F1F1" stroke-miterlimit="10"/>
<path d="M391.803 46.9179C396.441 46.9179 396.856 45.6919 396.856 32.8612C402.104 32.8612 401.308 30.0734 401.308 17.461C401.308 12.2969 395.324 12.7167 391.803 12.7167C388.282 12.7167 382.298 12.2969 382.298 17.461C382.298 30.0734 381.511 32.8612 386.75 32.8612C386.75 45.7171 387.165 46.9179 391.803 46.9179Z" stroke="#F1F1F1" stroke-miterlimit="10"/>
<path d="M394.415 9.50061C396.337 8.07816 396.733 5.37911 395.299 3.47213C393.865 1.56515 391.145 1.17237 389.223 2.59482C387.3 4.01728 386.905 6.71632 388.338 8.6233C389.772 10.5303 392.493 10.9231 394.415 9.50061Z" stroke="#F1F1F1" stroke-miterlimit="10"/>
<path d="M420.453 46.9176C425.092 46.9176 425.506 45.6916 425.506 32.861C430.754 32.861 429.958 30.0731 429.958 17.4608C429.958 12.2966 423.974 12.7165 420.453 12.7165C416.932 12.7165 410.948 12.2966 410.948 17.4608C410.948 30.0731 410.161 32.861 415.4 32.861C415.4 45.7168 415.815 46.9176 420.453 46.9176Z" stroke="#F1F1F1" stroke-miterlimit="10"/>
<path d="M423.065 9.50037C424.987 8.07791 425.383 5.37887 423.95 3.47189C422.516 1.56491 419.795 1.17212 417.873 2.59458C415.951 4.01704 415.555 6.71608 416.989 8.62306C418.422 10.53 421.143 10.9228 423.065 9.50037Z" stroke="#F1F1F1" stroke-miterlimit="10"/>
<path d="M102.219 112C106.857 112 107.272 110.774 107.272 97.943C112.52 97.943 111.724 95.1552 111.724 82.5428C111.724 77.3786 105.74 77.7985 102.219 77.7985C98.6979 77.7985 92.7139 77.3786 92.7139 82.5428C92.7139 95.1552 91.9267 97.943 97.166 97.943C97.166 110.799 97.5807 112 102.219 112Z" stroke="#F1F1F1" stroke-miterlimit="10"/>
<path d="M104.817 74.5783C106.739 73.1558 107.135 70.4568 105.702 68.5498C104.268 66.6428 101.547 66.25 99.625 67.6725C97.7028 69.0949 97.3069 71.794 98.7407 73.7009C100.174 75.6079 102.895 76.0007 104.817 74.5783Z" stroke="#F1F1F1" stroke-miterlimit="10"/>
<path d="M131.176 112C135.814 112 136.229 110.774 136.229 97.943C141.477 97.943 140.681 95.1552 140.681 82.5428C140.681 77.3786 134.697 77.7985 131.176 77.7985C127.655 77.7985 121.671 77.3786 121.671 82.5428C121.671 95.1552 120.884 97.943 126.123 97.943C126.123 110.799 126.538 112 131.176 112Z" stroke="#F1F1F1" stroke-miterlimit="10"/>
<path d="M133.776 74.5748C135.698 73.1524 136.094 70.4533 134.66 68.5464C133.227 66.6394 130.506 66.2466 128.584 67.669C126.662 69.0915 126.266 71.7905 127.7 73.6975C129.133 75.6045 131.854 75.9973 133.776 74.5748Z" stroke="#F1F1F1" stroke-miterlimit="10"/>
<path d="M160.131 112C164.769 112 165.184 110.774 165.184 97.9435C170.432 97.9435 169.636 95.1557 169.636 82.5433C169.636 77.3791 163.652 77.799 160.131 77.799C156.61 77.799 150.626 77.3791 150.626 82.5433C150.626 95.1557 149.839 97.9435 155.078 97.9435C155.078 110.799 155.493 112 160.131 112Z" stroke="#F1F1F1" stroke-miterlimit="10"/>
<path d="M162.733 74.5795C164.655 73.157 165.051 70.458 163.618 68.551C162.184 66.644 159.463 66.2512 157.541 67.6737C155.619 69.0961 155.223 71.7952 156.657 73.7022C158.09 75.6091 160.811 76.0019 162.733 74.5795Z" stroke="#F1F1F1" stroke-miterlimit="10"/>
<path d="M189.096 112C193.734 112 194.149 110.774 194.149 97.9432C199.397 97.9432 198.601 95.1554 198.601 82.5431C198.601 77.3789 192.617 77.7987 189.096 77.7987C185.575 77.7987 179.591 77.3789 179.591 82.5431C179.591 95.1554 178.804 97.9432 184.043 97.9432C184.043 110.799 184.458 112 189.096 112Z" stroke="#F1F1F1" stroke-miterlimit="10"/>
<path d="M191.698 74.5792C193.62 73.1568 194.016 70.4577 192.582 68.5507C191.149 66.6438 188.428 66.251 186.506 67.6734C184.584 69.0959 184.188 71.7949 185.622 73.7019C187.055 75.6089 189.776 76.0017 191.698 74.5792Z" stroke="#F1F1F1" stroke-miterlimit="10"/>
<path d="M218.053 112C222.691 112 223.106 110.774 223.106 97.9435C228.354 97.9435 227.558 95.1557 227.558 82.5433C227.558 77.3791 221.574 77.799 218.053 77.799C214.532 77.799 208.548 77.3791 208.548 82.5433C208.548 95.1557 207.761 97.9435 213 97.9435C213 110.799 213.415 112 218.053 112Z" stroke="#F1F1F1" stroke-miterlimit="10"/>
<path d="M220.657 74.5844C222.579 73.1619 222.975 70.4629 221.541 68.5559C220.108 66.6489 217.387 66.2561 215.465 67.6786C213.543 69.101 213.147 71.8001 214.58 73.707C216.014 75.614 218.735 76.0068 220.657 74.5844Z" stroke="#F1F1F1" stroke-miterlimit="10"/>
<path d="M247.002 112C251.64 112 252.055 110.774 252.055 97.943C257.303 97.943 256.507 95.1552 256.507 82.5428C256.507 77.3786 250.523 77.7985 247.002 77.7985C243.481 77.7985 237.497 77.3786 237.497 82.5428C237.497 95.1552 236.71 97.943 241.949 97.943C241.949 110.799 242.364 112 247.002 112Z" stroke="#F1F1F1" stroke-miterlimit="10"/>
<path d="M249.608 74.5887C251.53 73.1663 251.926 70.4673 250.493 68.5603C249.059 66.6533 246.338 66.2605 244.416 67.683C242.494 69.1054 242.098 71.8045 243.532 73.7114C244.965 75.6184 247.686 76.0112 249.608 74.5887Z" stroke="#F1F1F1" stroke-miterlimit="10"/>
<path d="M275.967 112C280.605 112 281.02 110.774 281.02 97.9432C286.268 97.9432 285.472 95.1554 285.472 82.5431C285.472 77.3789 279.488 77.7987 275.967 77.7987C272.446 77.7987 266.462 77.3789 266.462 82.5431C266.462 95.1554 265.675 97.9432 270.914 97.9432C270.914 110.799 271.329 112 275.967 112Z" stroke="#F1F1F1" stroke-miterlimit="10"/>
<path d="M278.571 74.5802C280.493 73.1578 280.889 70.4587 279.455 68.5517C278.022 66.6448 275.301 66.252 273.379 67.6744C271.457 69.0969 271.061 71.7959 272.495 73.7029C273.928 75.6099 276.649 76.0027 278.571 74.5802Z" stroke="#F1F1F1" stroke-miterlimit="10"/>
<path d="M304.926 112C309.564 112 309.979 110.774 309.979 97.9432C315.227 97.9432 314.431 95.1554 314.431 82.5431C314.431 77.3789 308.447 77.7987 304.926 77.7987C301.405 77.7987 295.421 77.3789 295.421 82.5431C295.421 95.1554 294.634 97.9432 299.873 97.9432C299.873 110.799 300.288 112 304.926 112Z" stroke="#F1F1F1" stroke-miterlimit="10"/>
<path d="M307.532 74.5848C309.454 73.1624 309.85 70.4633 308.416 68.5564C306.983 66.6494 304.262 66.2566 302.34 67.6791C300.418 69.1015 300.022 71.8006 301.455 73.7075C302.889 75.6145 305.61 76.0073 307.532 74.5848Z" stroke="#F1F1F1" stroke-miterlimit="10"/>
<path d="M333.881 112C338.519 112 338.934 110.774 338.934 97.9432C344.182 97.9432 343.386 95.1554 343.386 82.5431C343.386 77.3789 337.402 77.7987 333.881 77.7987C330.36 77.7987 324.376 77.3789 324.376 82.5431C324.376 95.1554 323.589 97.9432 328.828 97.9432C328.828 110.799 329.243 112 333.881 112Z" stroke="#F1F1F1" stroke-miterlimit="10"/>
<path d="M336.489 74.5895C338.411 73.167 338.807 70.468 337.373 68.561C335.94 66.654 333.219 66.2612 331.297 67.6837C329.375 69.1061 328.979 71.8052 330.413 73.7122C331.846 75.6192 334.567 76.0119 336.489 74.5895Z" stroke="#F1F1F1" stroke-miterlimit="10"/>
<path d="M362.846 111.999C367.484 111.999 367.899 110.773 367.899 97.9425C373.147 97.9425 372.351 95.1547 372.351 82.5423C372.351 77.3782 366.367 77.798 362.846 77.798C359.325 77.798 353.341 77.3782 353.341 82.5423C353.341 95.1547 352.554 97.9425 357.793 97.9425C357.793 110.798 358.208 111.999 362.846 111.999Z" stroke="#F1F1F1" stroke-miterlimit="10"/>
<path d="M365.454 74.589C367.376 73.1665 367.772 70.4675 366.338 68.5605C364.904 66.6535 362.184 66.2607 360.262 67.6832C358.339 69.1057 357.944 71.8047 359.377 73.7117C360.811 75.6187 363.532 76.0114 365.454 74.589Z" stroke="#F1F1F1" stroke-miterlimit="10"/>
<path d="M391.803 112C396.441 112 396.856 110.774 396.856 97.9432C402.104 97.9432 401.308 95.1554 401.308 82.5431C401.308 77.3789 395.324 77.7987 391.803 77.7987C388.282 77.7987 382.298 77.3789 382.298 82.5431C382.298 95.1554 381.511 97.9432 386.75 97.9432C386.75 110.799 387.165 112 391.803 112Z" stroke="#F1F1F1" stroke-miterlimit="10"/>
<path d="M394.414 74.5937C396.336 73.1714 396.732 70.4726 395.298 68.5658C393.864 66.6589 391.143 66.2661 389.221 67.6884C387.299 69.1107 386.903 71.8095 388.337 73.7163C389.771 75.6232 392.491 76.016 394.414 74.5937Z" stroke="#F1F1F1" stroke-miterlimit="10"/>
<path d="M420.453 112C425.092 112 425.506 110.774 425.506 97.9432C430.754 97.9432 429.958 95.1554 429.958 82.5431C429.958 77.3789 423.974 77.7987 420.453 77.7987C416.932 77.7987 410.948 77.3789 410.948 82.5431C410.948 95.1554 410.161 97.9432 415.4 97.9432C415.4 110.799 415.815 112 420.453 112Z" stroke="#F1F1F1" stroke-miterlimit="10"/>
<path d="M423.064 74.5937C424.986 73.1714 425.382 70.4726 423.948 68.5658C422.514 66.6589 419.794 66.2661 417.871 67.6884C415.949 69.1107 415.553 71.8095 416.987 73.7163C418.421 75.6232 421.142 76.016 423.064 74.5937Z" stroke="#F1F1F1" stroke-miterlimit="10"/>
<rect x="68" y="50" width="8" height="27" transform="rotate(90 68 50)" fill="#FAFAFA"/>
<path d="M75.5 54L66 46L66 62L75.5 54Z" fill="#FAFAFA"/>
</svg>
